<?xml version="1.0" encoding="iso-8859-1"?>
<!-- Generator: Adobe Illustrator 19.0.0, SVG Export Plug-In . SVG Version: 6.00 Build 0)  -->
<svg xmlns="http://www.w3.org/2000/svg" xmlns:xlink="http://www.w3.org/1999/xlink" version="1.1" id="Layer_1" x="0px" y="0px" viewBox="0 0 512 512" style="enable-background:new 0 0 512 512;" xml:space="preserve" width="512px" height="512px">
<g>
	<g>
		<path d="M383.525,274.565V123.234C383.525,55.283,326.317,0,256,0c-70.318,0-127.525,55.283-127.525,123.234v151.331    C112.388,298.78,103,327.813,103,359c0,84.364,68.636,153,153,153s153-68.636,153-153C409,327.813,399.612,298.78,383.525,274.565    z M158.474,123.234C158.475,71.825,202.224,30,256,30c53.775,0,97.525,41.825,97.525,93.234v117.967    c-8.305-6.887-17.348-12.91-26.989-17.94v-97.857c0-36.517-31.643-66.225-70.536-66.225c-38.894,0-70.537,29.708-70.537,66.225    v97.858c-9.641,5.03-18.685,11.053-26.989,17.94V123.234z M296.536,125.404v86.057C283.62,207.908,270.029,206,256,206    c-14.03,0-27.62,1.908-40.537,5.461v-86.057c0-19.975,18.184-36.225,40.537-36.225    C278.352,89.179,296.536,105.429,296.536,125.404z M256,482c-67.822,0-123-55.178-123-123c0-28.059,9.451-53.948,25.327-74.667    h0.147v-0.192C180.981,254.889,216.323,236,256,236s75.019,18.889,97.525,48.141v0.192h0.148C369.549,305.052,379,330.941,379,359    C379,426.822,323.822,482,256,482z" fill="#FFFFFF"/>
	</g>
</g>
<g>
	<g>
		<path d="M304.897,334.446c0-26.962-21.935-48.897-48.897-48.897c-26.962,0-48.898,21.935-48.898,48.897    c0,10.378,3.229,20.29,9.207,28.564L211.077,423h89.846l-5.233-59.99C301.669,354.738,304.897,344.825,304.897,334.446z     M269.496,347.665l-4.828,4.928L268.192,393h-24.385l3.523-40.407l-4.827-4.928c-3.483-3.556-5.401-8.25-5.401-13.219    c0-10.42,8.478-18.897,18.898-18.897s18.897,8.478,18.897,18.897C274.897,339.415,272.979,344.109,269.496,347.665z" fill="#FFFFFF"/>
	</g>
</g>
<g>
</g>
<g>
</g>
<g>
</g>
<g>
</g>
<g>
</g>
<g>
</g>
<g>
</g>
<g>
</g>
<g>
</g>
<g>
</g>
<g>
</g>
<g>
</g>
<g>
</g>
<g>
</g>
<g>
</g>
</svg>
