<?xml version="1.0" encoding="iso-8859-1"?>
<!-- Generator: Adobe Illustrator 19.0.0, SVG Export Plug-In . SVG Version: 6.00 Build 0)  -->
<svg version="1.1" id="Layer_1" xmlns="http://www.w3.org/2000/svg" xmlns:xlink="http://www.w3.org/1999/xlink" x="0px" y="0px"
	 viewBox="0 0 512 512" style="enable-background:new 0 0 512 512;" xml:space="preserve">
<g>
	<g>
		<path d="M327.133,206c-13.914,0-27.395,1.878-40.216,5.374v-88.14C286.917,55.283,229.709,0,159.393,0
			S31.867,55.283,31.867,123.234v170.1h86.988v-167.93c0-19.975,18.184-36.225,40.537-36.225c22.352,0,40.536,16.25,40.536,36.225
			v148.673c-16.285,24.313-25.796,53.527-25.796,84.923c0,84.364,68.636,153,153,153s153-68.636,153-153S411.497,206,327.133,206z
			 M159.393,59.179c-38.894,0-70.536,29.708-70.536,66.225v137.93H61.867v-140.1c0-51.409,43.75-93.234,97.525-93.234
			c53.775,0,97.524,41.825,97.524,93.234v99.858c-9.636,4.999-18.68,10.988-26.988,17.84V125.404
			C229.93,88.887,198.286,59.179,159.393,59.179z M327.133,482c-67.822,0-123-55.178-123-123s55.178-123,123-123s123,55.178,123,123
			S394.956,482,327.133,482z"/>
	</g>
</g>
<g>
	<g>
		<path d="M376.031,334.446c-0.001-26.962-21.936-48.897-48.898-48.897c-26.962,0-48.897,21.935-48.897,48.897
			c0,10.378,3.228,20.291,9.207,28.564L282.211,423h89.846l-5.232-59.99C372.804,354.738,376.031,344.825,376.031,334.446z
			 M340.63,347.665l-4.828,4.928L339.326,393H314.94l3.524-40.407l-4.828-4.928c-3.483-3.556-5.401-8.25-5.401-13.218
			c0-10.42,8.477-18.897,18.897-18.897c10.42,0,18.897,8.478,18.897,18.897C346.031,339.415,344.112,344.109,340.63,347.665z"/>
	</g>
</g>
<g>
</g>
<g>
</g>
<g>
</g>
<g>
</g>
<g>
</g>
<g>
</g>
<g>
</g>
<g>
</g>
<g>
</g>
<g>
</g>
<g>
</g>
<g>
</g>
<g>
</g>
<g>
</g>
<g>
</g>
</svg>
